<svg version="1.2" xmlns="http://www.w3.org/2000/svg" viewBox="0 0 40 40" width="40" height="40"><style>.a{fill:#da6464}</style><g style="opacity:.1"><path class="a" d="m-1.1 9c0-4.4 3.6-8 8-8l24.2 0.2c4.4 0 8 3.6 8 8l-0.2 23.9c0 4.4-3.6 8-8 8l-24.2-0.2c-4.4 0-8-3.6-7.9-8z"/></g><path class="a" d="m16.2 25.7l-0.1 3.8c0 0.3 0.2 0.6 0.5 0.6q0.1 0.1 0.2 0.1c0.2 0 0.4-0.1 0.5-0.3l2.3-3z"/><path class="a" d="m28.7 11.2c-0.2-0.1-0.4-0.1-0.6 0l-18.9 9.7c-0.2 0.1-0.4 0.3-0.3 0.6 0 0.2 0.1 0.4 0.4 0.5l5.2 1.8 11.2-9.4-8.7 10.3 8.8 3q0.1 0 0.2 0 0.2 0 0.3-0.1 0.3-0.1 0.3-0.4l2.4-15.4c0-0.2-0.1-0.4-0.3-0.6z"/></svg>